<svg width="1440" height="250" fill="none" xmlns="http://www.w3.org/2000/svg"><path fill="#3A3054" d="M0 0h1440v250H0z"/><mask id="a" style="mask-type:alpha" maskUnits="userSpaceOnUse" x="0" y="0" width="1440" height="250"><path fill="#fff" d="M0 0h1440v250H0z"/></mask><g mask="url(#a)" fill-rule="evenodd" clip-rule="evenodd" fill="#4B3F6B"><path d="M830-63.481C830 19.35 854.361 78.678 944.732 117c90.368 38.321 177.688 3.352 265.278 23.4 87.59 20.048 87.59 149.195 170.08 228.671 82.48 79.476 256.4 98.781 397.82 18.15 141.41-80.632 205.52-268.896 163.26-379.902C1898.92-103.687 1817.94-205 1427.24-205 1036.53-205 830-146.314 830-63.481ZM-263.351 570.909c29.685 77.331 73.689 123.988 171.79 127.377 98.102 3.39 167.085-60.547 256.043-73.22 88.958-12.674 135.24 107.895 240.729 152.532 105.489 44.638 274.776.333 377.902-125.622 103.126-125.955 95.506-324.687 16.278-413.178-79.229-88.491-191.134-154.055-555.89-14.038-364.757 140.017-536.537 268.818-506.852 346.149ZM-514-377.482c0 82.833 24.361 142.161 114.732 180.482s177.686 3.352 265.277 23.4c87.59 20.048 87.59 149.195 170.077 228.671 82.486 79.476 256.405 98.781 397.82 18.15C575.321-7.412 639.427-195.675 597.173-306.681 554.919-417.687 473.943-519 83.236-519S-514-460.314-514-377.482Z"/></g></svg>