<svg width="610" height="482" fill="none" xmlns="http://www.w3.org/2000/svg"><path d="M583.079 92.214c-20.972-22.385-37.207-49.107-62.274-67.375-39.374-28.754-96.041-31.558-142.081-13.494-46.039 18.063-81.904 54.474-105.543 95.703-12.435 21.692-22.202 45.354-40.423 63.08-15.403 14.976-35.648 24.531-54.843 34.938-30.948 16.733-60.752 36.952-80.78 64.695-20.026 27.743-28.98 64.181-16.178 95.446 8.633 21.097 26.022 37.883 43.836 53.081 20.964 17.869 43.496 34.601 69.499 45.248 32.556 13.246 68.695 16.094 104.135 17.442 62.828 2.38 125.757.601 188.319-5.323 51.23-4.844 104.011-13.113 146.874-39.88 60.043-37.484 91.001-106.163 97.97-173.511 2.836-26.935 2.118-54.927-8.964-79.919-26.504-59.78-98.017-45.798-139.547-90.131Z" fill="#EFF1F7"/><path d="M178.317 202.334s-16.6-2.947-21.25 8.669c-4.65 11.616 0 51.733 0 51.733L219 307l-40.683-104.666Z" fill="#3F3D56"/><path d="m256.202 379.727-24.555 7.008c-3.568 1.009-7.31-.952-8.372-4.386-1.047-3.438.987-7.046 4.55-8.069l24.522-7.014c3.565-1.01 7.307.947 8.372 4.379 1.058 3.433-.961 7.045-4.517 8.082Z" fill="#2BD0D0"/><circle cx="255" cy="395" r="11" fill="#25233A"/><circle cx="253.5" cy="397.5" r="5.5" fill="#3F3D56"/><circle cx="210" cy="384" r="11" fill="#25233A"/><path d="M214 384.5a5.5 5.5 0 1 1-11 0 5.5 5.5 0 1 1 11 0Z" fill="url(#a)"/><circle cx="207" cy="399" r="11" fill="#25233A"/><path d="M216 399.5a5.5 5.5 0 1 1-11 0 5.5 5.5 0 1 1 11 0Z" fill="#3F3D56"/><path d="m257.085 390.874-50.787-10.046c-3.574-.717-5.884-4.13-5.168-7.636.732-3.5 4.211-5.764 7.785-5.066l50.787 10.027c3.574.717 5.884 4.131 5.168 7.637-.723 3.507-4.204 5.781-7.785 5.084Z" fill="#2BD0D0"/><path d="M226 310h14v58.999a6.999 6.999 0 0 1-6.997 7.001 6.998 6.998 0 0 1-6.996-7.001V310H226Z" fill="#2BD0D0"/><path d="m231.187 386.708-24.537 7.025c-3.568 1.014-7.314-.949-8.375-4.388-1.047-3.441.987-7.05 4.548-8.074l24.537-7.005c3.564-1.011 7.304.948 8.368 4.381 1.039 3.435-.989 7.034-4.541 8.061Z" fill="#2BD0D0"/><path d="m236 386.26-3.125.551c-.932.163-1.907.222-2.875.172l1.305-.228a10.294 10.294 0 0 0 2.507-.755l2.188.26Z" fill="url(#b)"/><path d="M261 372.738a6.914 6.914 0 0 1-1.46 4.262L239 372.65a7.104 7.104 0 0 0 1.098-2.462l12.654-3.923a6.2 6.2 0 0 1 4.913.579c1.5.867 2.609 2.324 3.083 4.048.164.6.249 1.222.252 1.846Z" fill="url(#c)"/><path opacity=".31" d="M225.221 371.103a5.779 5.779 0 0 1-.221-1.58V311h5.943v63.071c-.059.309-.039.626.057.929a9.262 9.262 0 0 0-2.845-.511c-.691-.04-1.385-.04-2.076 0l.425-.1c.262-.04-.94-2.091-1.283-3.286Z" fill="url(#d)"/><path opacity=".31" d="M262.289 389.8a6.67 6.67 0 0 1-3.17.796 7.059 7.059 0 0 1-1.329-.129l-22.408-4.407-1.867-.363a6.519 6.519 0 0 1-2.133 1.055l-1.11.317-23.025 6.666c-3.514 1.007-7.202-.943-8.247-4.362 1.997 1.805 5.029 1.973 7.223.401 2.811-1.896 14.002-4.743 20.341-6.257 2.996-.698 5.288-3.049 5.848-5.999a4.13 4.13 0 0 1 .08-.518c1.056 1.113 2.997 2.362 6.505 3.423 8.639 2.589 22.667 4.304 22.667 4.304s2.532 2.42.625 5.073Z" fill="url(#e)"/><path d="M264 388a7.623 7.623 0 0 1-2 2 120.6 120.6 0 0 0 2-2Z" fill="url(#f)"/><path d="M226.299 370.559a6.828 6.828 0 0 0 1.701 3.129c-.209.04-.425.093-.641.152L206.088 380c-3.271-.813-5.426-3.865-5.044-7.146.381-3.28 3.181-5.781 6.556-5.854.453.001.905.045 1.349.132l17.35 3.427Z" fill="url(#g)"/><path d="M259 89.407s-.276-20.805-17.075-19.01c-16.799 1.793-15.511-5.095-22.687-4.339-7.175.757-15.511 7.786-13.117 16.468 2.395 8.682-6.332 10.623-12.064 17.21-5.733 6.587 1.349 11.976 11.006 18.416 9.657 6.44-.6 4.773 5.125 14.955 5.726 10.181 25.107-2.825 25.107-2.825L259 89.407Z" fill="#503164"/><path d="m122.664 434.601 11.729.399v-93.745s.591-24.241 23.453-26.673c22.861-2.431 230.196-32.466 230.196-32.466s8.218-.87 12.951 14.901c4.733 15.771 9.34 77.787 9.34 77.787l63.64 8.577s1.679-109.549-21.302-115.595c-22.981-6.045-323.522 24.76-323.522 24.76s-22.291 116.352-6.485 142.055Z" fill="#2BD0D0"/><path opacity=".197" d="m122.664 434.601 11.729.399v-93.745s.591-24.241 23.453-26.673c22.861-2.431 230.196-32.466 230.196-32.466s8.218-.87 12.951 14.901c4.733 15.771 9.34 77.787 9.34 77.787l63.64 8.577s1.679-109.549-21.302-115.595c-22.981-6.045-323.522 24.76-323.522 24.76s-22.291 116.352-6.485 142.055Z" fill="url(#h)"/><path d="M62 303.784s5.744-31.756 46.144-40.079l285.183-32.643s27.996-1.16 40.804 6.587c12.808 7.746 31.088 14.168 38.583 49.223 7.495 35.056 9.286 94.942 9.286 94.942l-7.09 1.1s-10.348-108.44-21.311-115.306c-10.964-6.865-307.403 35.255-307.403 35.255s-20.561 4.088-22.352 34.532c-1.791 30.443 0 96.605 0 96.605L62 409.057V303.784Z" fill="#2BD0D0"/><path opacity=".19" d="M355.425 243.844c-14.762-1.9-29.644-3.276-44.519-2.719-11.179.432-22.286 1.965-33.372 3.492l-97.775 13.503c-1.659.229-3.55.603-4.379 2.044-1.593 2.752 2.149 5.464 5.181 6.512 32.51 11.256 67.243 22.656 100.708 14.63 15.3-3.669 29.511-11.288 45.03-13.935 15.518-2.647 31.448-.21 46.933-2.706 14.557-2.345 28.417-9.009 43.172-9.074 4.525 0 9.183.577 13.475-.839 4.293-1.415 8.088-5.739 6.9-10.05-13.853-.478-29.404-3.007-42.992-.262-13.449 2.712-24.894-.596-38.362-.596Z" fill="url(#i)"/><path d="m267 259.38.57 2.114s16.881 10.173 16.775 10.501c-.106.328 70.024-16.239 70.024-16.239L356 251l-89 8.38Z" fill="#2BD0D0"/><path d="m267 259.38.57 2.114s16.881 10.173 16.775 10.501c-.106.328 70.024-16.239 70.024-16.239L356 251l-89 8.38Z" fill="url(#j)"/><path d="M268 259.364 330.107 246 356 251.054 285.442 268 268 259.364Z" fill="#2BD0D0"/><path d="M268 259.364 330.107 246 356 251.054 285.442 268 268 259.364Z" fill="url(#k)"/><path d="m247.832 270.484 14.457.512s3.672.228 4.621-2.717c.949-2.945-5.89-9.16-6.623-9.277-.733-.118-19.759 5.219-17.017 10.556l4.562.926Z" fill="#2BD0D0"/><path d="m247.832 270.484 14.457.512s3.672.228 4.621-2.717c.949-2.945-5.89-9.16-6.623-9.277-.733-.118-19.759 5.219-17.017 10.556l4.562.926Z" fill="url(#l)"/><path d="m79 416.056-7.058 21.677c-20.473 7.351-37.88 0-37.88 0L29 415s25.535 8.56 50 1.056Z" fill="#2BD0D0"/><path d="m79 416.056-7.058 21.677c-20.473 7.351-37.88 0-37.88 0L29 415s25.535 8.56 50 1.056Z" fill="url(#m)"/><path d="m87 396-2.284 16.943-5.786 3.008c-24.649 7.421-50.415-1.038-50.415-1.038l-4.443-3.283L22 396h65Z" fill="#2BD0D0"/><path d="m87 396-2.284 16.943-5.786 3.008c-24.649 7.421-50.415-1.038-50.415-1.038l-4.443-3.283L22 396h65Z" fill="url(#n)"/><ellipse cx="54.5" cy="395" rx="32.5" ry="6" fill="#2BD0D0"/><ellipse cx="54.5" cy="395" rx="32.5" ry="6" fill="url(#o)"/><path d="M39.641 265.03c-3.182-1.515-6.603-2.658-9.356-4.871-5.547-4.498-6.953-12.247-8.69-19.197-1.736-6.951-5.097-14.593-11.944-16.587-2.562-.737-5.567-.445-7.515 1.389-2.053 1.934-2.47 5.11-1.908 7.915.561 2.804 1.928 5.316 2.985 7.974a36.877 36.877 0 0 1 2.172 19.477c-.865 5.389-2.932 10.851-1.605 16.134 2.252 8.964 13.47 14.221 13.78 23.457.212 6.233-4.885 12.001-3.73 18.135.852 4.538 5.005 8.08 5.23 12.692.25 5.23-4.662 9.655-4.424 14.885.238 5.23 5.427 8.725 8.815 12.839a21.45 21.45 0 0 1 4.827 12.193c.178 2.791-.179 5.682.726 8.327.66 1.933 1.98 3.575 3.004 5.316 1.13 1.88 1.981 3.914 3.341 5.655a13.696 13.696 0 0 0 14.725 4.651c1.05-6.95.132-14.041.423-21.065.574-13.609 5.691-27.324 2.416-40.535-1.201-4.844-3.512-9.443-3.922-14.413-.363-4.439.812-8.838 1.631-13.217 1.69-9.044 1.664-18.394.97-27.538-.547-7.256-5.618-10.599-11.95-13.616Z" fill="#2BD0D0"/><path d="M59.752 300.767c-.053 6.062 1.33 12.329-.612 18.085-1.47 4.362-4.702 7.934-6.371 12.223-3.85 9.899 1.33 21 .273 31.569-.44 4.355-1.936 8.538-2.88 12.814a51.239 51.239 0 0 0-.851 16.485 4.171 4.171 0 0 0 3.325 4.342A51.957 51.957 0 0 0 62.711 399a26.639 26.639 0 0 1 3.445-18.59c5.274-8.63 15.522-14.446 17.43-24.359 1.29-6.712-1.715-13.524-1.502-20.355a21.886 21.886 0 0 1 4.482-12.548c2.48-3.227 5.839-5.723 8.147-9.069 5.546-8.067 3.817-18.849 2.168-28.495-1.65-9.647-2.607-20.748 3.91-28.057 2.062-2.311 4.748-4.044 6.617-6.513 4.163-5.504 3.112-13.983-1.729-18.902-4.841-4.92-12.636-6.281-19.22-4.116a13.858 13.858 0 0 0-7.009 4.76c-3.325 4.714-1.995 11.154-.585 16.757 1.23 4.867 2.221 10.483.538 15.39-1.256 3.651-4.442 5.63-7.149 8.172a38.903 38.903 0 0 0-12.502 27.692Z" fill="#2BD0D0"/><path d="M53.062 354.522c-.938 6.593-2.292 13.239-2.57 19.851v.665a1.77 1.77 0 0 1-.111.479 51.676 51.676 0 0 0-.866 16.501c.036.893.261 1.768.66 2.566-.032.279-.072.551-.111.83a13.702 13.702 0 0 1-14.73-4.652c-1.32-1.741-2.213-3.775-3.342-5.655-1.057-1.748-2.345-3.39-3.005-5.317-.905-2.658-.549-5.536-.727-8.327a21.455 21.455 0 0 0-4.828-12.196c-3.389-4.087-8.587-7.516-8.818-12.833-.231-5.317 4.676-9.656 4.425-14.887-.224-4.612-4.379-8.154-5.23-12.693-1.157-6.135 3.962-11.903 3.731-18.137-.31-9.238-11.532-14.495-13.785-23.46-1.32-5.284.74-10.747 1.605-16.136a36.878 36.878 0 0 0-2.146-19.46c-1.057-2.658-2.424-5.163-2.986-7.975-.561-2.811-.145-5.981 1.909-7.922 1.982-1.834 4.954-2.126 7.517-1.389 6.856 1.994 10.204 9.664 11.948 16.615 1.744 6.952 3.144 14.694 8.692 19.2 2.742 2.227 6.176 3.356 9.36 4.872 6.34 3.017 11.413 6.36 11.955 13.551.66 9.144.72 18.495-.97 27.54-.82 4.38-1.982 8.779-1.632 13.219.35 4.439 2.272 8.64 3.527 12.946.139.485.277.977.396 1.469 1.665 6.839 1.13 13.757.132 20.735Z" fill="#30C59B"/><path d="M49.718 394a7.788 7.788 0 0 1-.502-2.488 67.11 67.11 0 0 1 .636-16.047c.025-.155.053-.31.082-.465-.172 6.346.373 12.744-.215 19Z" fill="url(#p)"/><path d="M107.393 251.014c-1.871 2.469-4.562 4.202-6.627 6.513-6.527 7.303-5.568 18.41-3.916 28.057 1.651 9.646 3.383 20.428-2.172 28.495-2.31 3.319-5.674 5.842-8.159 9.069a21.865 21.865 0 0 0-4.49 12.548c-.212 6.831 2.798 13.643 1.506 20.355-1.911 9.913-12.175 15.742-17.457 24.359A26.645 26.645 0 0 0 62.654 399a51.837 51.837 0 0 1-10.064-2.715 5.429 5.429 0 0 1-2.344-1.415 2.433 2.433 0 0 1-.247-.345 6.228 6.228 0 0 1-.699-2.549c-.599-5.507-.3-11.074.886-16.485.033-.16.073-.319.113-.478.946-4.11 2.345-8.14 2.771-12.336.227-2.72.173-5.456-.16-8.166 1.006-6.971 1.545-13.882-.153-20.668a36.92 36.92 0 0 0-.4-1.467c.127-.425.273-.85.44-1.268 1.672-4.289 4.909-7.861 6.38-12.223 1.939-5.756.56-12.023.613-18.085.087-10.469 4.823-20.581 12.429-27.725 2.71-2.542 5.901-4.521 7.16-8.172 1.685-4.907.666-10.523-.54-15.39-1.418-5.603-2.764-12.043.587-16.757 1.665-2.337 4.289-3.857 7.02-4.76 6.567-2.165 14.407-.804 19.249 4.116 4.842 4.919 5.868 13.431 1.698 18.902Z" fill="#30C59B"/><path d="M225.573 146.146s-27.817 4.3-40.684 34.977c-12.867 30.677-6.176 68.683-5.951 72.027.225 3.344 39.428 17.85 50.635 17.85 11.208 0 13.542-11.229 13.542-11.229l-19.803-8.433 60.17-6.949h10.804l-5.951 10.032s11.743 1.231 19.592 1.511c7.848.281 13.178-15.241 14.057-22.959.879-7.717-34.667-75.458-39.977-79.47-5.309-4.013-19.717-13.817-56.434-7.357Z" fill="#2BD0D0"/><path d="M258.392 88.776s5.032 2.83 4.579 11.985c-.452 9.155-3.289 22.932-6.152 26.5-2.864 3.569-12.879 4.968-12.879 4.968s5.463 12.977 9.529 16.326-4.086 15.687-12.015 11.639c-7.928-4.049-17.12-14.216-17.12-14.216s6.612-12.245 4.376-18.69c-2.235-6.445-10.772-29.063-4.376-35.242 6.396-6.18 20.186-15.035 34.058-3.27Z" fill="url(#q)"/><path opacity=".25" d="M214.334 190 210 244.055 223.238 251 234 249.122l-13.428-16.504L214.334 190ZM284 187s17.909 42.077 9.97 57l-6.116-1.161L284 187Z" fill="#fff"/><path d="M235.522 258.045s-6.766 5.775-3.746 10.267c3.02 4.491 6.625 4.363 9.631 2.355 3.006-2.009 8.911-6.776 15.946-4.588 7.035 2.188 8.744 3.58 8.744 3.58s3.705-2.316 2.744-4.639c-.962-2.323-8.32-9.849-10.452-10.825-2.132-.975-10.983 2.021-10.983 2.021s-6.503-1.758-11.884 1.829Z" fill="url(#r)"/><path d="M295.191 245.598s-6.385.759-7.998 4.957c-1.613 4.198-2.193 4.709-2.193 4.709s3.606.691 5.106-1.263c1.499-1.954 3.059-1.133 3.059-1.133l-.447 2.507s9.798 1.477 14.224-.111c4.425-1.588 6.325-3.452 6.325-3.452l1.733-4.24s-4.179-3.031-7.332-3.5c-3.152-.47-12.477 1.526-12.477 1.526Z" fill="url(#s)"/><path d="M328.893 290s21.934 16.687 19.984 39.259c-1.949 22.572-4.813 56.087-4.813 56.087s-8.846 3.722-14.707 0c-5.862-3.722-9.411-54.649-12.315-59.513-2.904-4.864-20.375-26.791-39.042-28.679L328.893 290Z" fill="#25233A"/><path d="M219 306.058s10.444 9.895 29.062 13.002c18.619 3.107 27.297 5.7 32.987 21.605 5.69 15.905 11.148 50.137 12.935 53.963 1.786 3.826 9.382 1.874 9.382 1.874s4.296-4.895 4.296-32.114c0-37.946 2.655-45.724-6.913-55.256-9.568-9.533-18.272-12.132-18.272-12.132L219 306.058Z" fill="#3F3D56"/><path d="m294 396 1.82 14.197h3.408s21.948 1.187 22.636.675c.688-.513-1.057-11.243-9.372-10.94-8.316.304-8.861-2.023-8.861-2.023L294 396ZM331 386.156 334.518 400l38.437-5.212s1.353-9.093-10.823-8.191c-3.214.234-5.608 2.465-9.471 2.485-3.863.02-7.563-1.543-9.511-4.082L331 386.156Z" fill="#25233A"/><path d="m461.804 212.337-142.243 7.654c-3.44.181-6.376-2.471-6.561-5.926V112.473c.003-4.101 3.267-7.448 7.348-7.535l141.661-2.937a6.838 6.838 0 0 1 4.886 1.917 6.899 6.899 0 0 1 2.105 4.827v95.971c-.005 4.056-3.164 7.402-7.196 7.621Z" fill="#2BD0D0"/><path d="m469.804 212.337-142.249 7.655c-3.44.177-6.373-2.478-6.555-5.934V112.473c-.004-4.102 3.26-7.452 7.342-7.535l141.68-2.937c3.777-.07 6.898 2.943 6.978 6.738v95.977c-.005 4.057-3.164 7.403-7.196 7.621Z" fill="#2BD0D0"/><path d="m469.804 212.337-142.249 7.655c-3.44.177-6.373-2.478-6.555-5.934V112.473c-.004-4.102 3.26-7.452 7.342-7.535l141.68-2.937c3.777-.07 6.898 2.943 6.978 6.738v95.977c-.005 4.057-3.164 7.403-7.196 7.621Z" fill="url(#t)"/><path d="M427.773 251.138 391.478 255s-11.053-2.23-10.455-3.862c.599-1.633 12.156-3.205 12.156-3.205v-65.804c-.099-.146-1.621-2.084-5.789-3.319a20.87 20.87 0 0 0-2.459-.57 7.283 7.283 0 0 1-2.06-.624c-2.479-1.281.259-3.511 4.107-3.61a9.615 9.615 0 0 1 1.802.106h27.913s10.568 2.973 11.08 17.811c.511 14.839 0 59.215 0 59.215Z" fill="#3A3054"/><path d="M398 251.277 391.322 255s-10.888-2.23-10.299-3.863c.589-1.632 11.995-3.205 11.995-3.205v-65.809c-.138-.152-1.807-1.898-5.703-3.318a28.703 28.703 0 0 0-4.452-1.195c-2.442-1.281.255-3.51 4.046-3.61 3.228.445 9.585 4.028 9.998 6.073.412 2.044 1.093 71.204 1.093 71.204Z" fill="#51466B"/><path d="M263 389c-.881 1.001-1.291 1.371-.77.547.27-.159.527-.342.77-.547Z" fill="url(#u)"/><defs><linearGradient id="a" x1="203" y1="390" x2="214" y2="390" gradientUnits="userSpaceOnUse"><stop stop-color="#183866"/><stop offset="1" stop-color="#1A7FC1"/></linearGradient><linearGradient id="b" x1="229.992" y1="387.001" x2="236" y2="387.001" gradientUnits="userSpaceOnUse"><stop/><stop offset=".99" stop-opacity=".01"/></linearGradient><linearGradient id="c" x1="263.916" y1="107.831" x2="276.23" y2="130.866" gradientUnits="userSpaceOnUse"><stop/><stop offset=".99" stop-opacity=".01"/></linearGradient><linearGradient id="d" x1="289.529" y1="-96.56" x2="244.041" y2="-96.669" gradientUnits="userSpaceOnUse"><stop/><stop offset=".99" stop-opacity=".01"/></linearGradient><linearGradient id="e" x1="357.142" y1="99.999" x2="346.535" y2="50.894" gradientUnits="userSpaceOnUse"><stop/><stop offset=".99" stop-opacity=".01"/></linearGradient><linearGradient id="f" x1="309.847" y1="54.318" x2="305.879" y2="53.065" gradientUnits="userSpaceOnUse"><stop/><stop offset=".99" stop-opacity=".01"/></linearGradient><linearGradient id="g" x1="258.106" y1="99.508" x2="241.633" y2="118.4" gradientUnits="userSpaceOnUse"><stop/><stop offset=".99" stop-opacity=".01"/></linearGradient><linearGradient id="h" x1="524.505" y1="22.549" x2="33.062" y2="-84.28" gradientUnits="userSpaceOnUse"><stop/><stop offset="1" stop-opacity=".01"/></linearGradient><linearGradient id="i" x1="212.123" y1="244.726" x2="474.119" y2="244.726" gradientUnits="userSpaceOnUse"><stop stop-color="#183866"/><stop offset="1" stop-color="#1A7FC1"/></linearGradient><linearGradient id="j" x1="75.456" y1="225.212" x2="76.999" y2="332.94" gradientUnits="userSpaceOnUse"><stop/><stop offset=".99" stop-opacity=".01"/></linearGradient><linearGradient id="k" x1="197.154" y1="250.814" x2="206.217" y2="297.211" gradientUnits="userSpaceOnUse"><stop/><stop offset=".99" stop-opacity=".01"/></linearGradient><linearGradient id="l" x1="237.493" y1="260.691" x2="236.892" y2="279.145" gradientUnits="userSpaceOnUse"><stop/><stop offset=".99" stop-opacity=".01"/></linearGradient><linearGradient id="m" x1="126.11" y1="47.954" x2="82.371" y2="41.709" gradientUnits="userSpaceOnUse"><stop/><stop offset=".99" stop-opacity=".01"/></linearGradient><linearGradient id="n" x1="133.367" y1="77.173" x2="98.535" y2="67.664" gradientUnits="userSpaceOnUse"><stop/><stop offset=".99" stop-opacity=".01"/></linearGradient><linearGradient id="o" x1="-192.124" y1="370.797" x2="-192.764" y2="463.661" gradientUnits="userSpaceOnUse"><stop/><stop offset=".99" stop-opacity=".01"/></linearGradient><linearGradient id="p" x1="78.207" y1="64.728" x2="74.684" y2="64.788" gradientUnits="userSpaceOnUse"><stop/><stop offset=".99" stop-opacity=".01"/></linearGradient><linearGradient id="q" x1="221.984" y1="161.009" x2="262.998" y2="161.009" gradientUnits="userSpaceOnUse"><stop stop-color="#ECC4D7"/><stop offset=".42" stop-color="#EFD4D1"/><stop offset="1" stop-color="#F2EAC9"/></linearGradient><linearGradient id="r" x1="268.632" y1="233.608" x2="306.631" y2="233.608" gradientUnits="userSpaceOnUse"><stop stop-color="#ECC4D7"/><stop offset=".42" stop-color="#EFD4D1"/><stop offset="1" stop-color="#F2EAC9"/></linearGradient><linearGradient id="s" x1="322.292" y1="239.852" x2="352.292" y2="239.852" gradientUnits="userSpaceOnUse"><stop stop-color="#ECC4D7"/><stop offset=".42" stop-color="#EFD4D1"/><stop offset="1" stop-color="#F2EAC9"/></linearGradient><linearGradient id="t" x1="450.177" y1="203.011" x2="326.849" y2="346.362" gradientUnits="userSpaceOnUse"><stop stop-color="#362958" stop-opacity=".501"/><stop offset="1" stop-color="#34313D" stop-opacity=".01"/></linearGradient><linearGradient id="u" x1="302.125" y1="46.165" x2="300.959" y2="45.734" gradientUnits="userSpaceOnUse"><stop/><stop offset=".99" stop-opacity=".01"/></linearGradient></defs></svg>