<svg width="1110" height="168" fill="none" xmlns="http://www.w3.org/2000/svg"><rect width="1110" height="168" rx="10" fill="#3A3054"/><mask id="a" style="mask-type:alpha" maskUnits="userSpaceOnUse" x="0" y="0" width="1110" height="168"><rect width="1110" height="168" rx="10" fill="#fff"/></mask><g mask="url(#a)" fill-rule="evenodd" clip-rule="evenodd" fill="#4B3F6B"><path d="M647-93.924c0 52.724 15.5 90.486 73 114.877 57.5 24.391 113.055 2.134 168.786 14.894 55.731 12.76 55.731 94.962 108.214 145.549 52.48 50.587 163.14 62.874 253.12 11.552C1340.1 141.626 1380.88 21.797 1354-48.859 1327.12-119.515 1275.59-184 1027-184c-248.593 0-380 37.353-380 90.076ZM-134 119.076c0 52.724 15.5 90.486 73 114.877 57.5 24.391 113.055 2.134 168.786 14.894 55.731 12.761 55.731 94.962 108.214 145.549s163.142 62.874 253.119 11.552S599.885 234.796 573 164.141C546.115 93.485 494.593 29 246 29c-248.593 0-380 37.353-380 90.076Z"/></g></svg>