<svg width="88" height="88" fill="none" xmlns="http://www.w3.org/2000/svg"><circle cx="44" cy="44" r="44" fill="#3A3054"/><path fill-rule="evenodd" clip-rule="evenodd" d="M67.608 26.02a.975.975 0 0 0-.927-.047l-7.624 3.591a8.283 8.283 0 0 0-4.728 6.837l-.196 2.436-3.95 6.561v-2.801a.047.047 0 0 0-.003-.013.978.978 0 0 0-.049-.298l-1.838-5.514 3.753-7.504a.984.984 0 0 0-.099-1.03l-5.9-7.867a1.02 1.02 0 0 0-1.573 0l-5.901 7.868a.984.984 0 0 0-.093 1.03l3.753 7.503-1.838 5.514a.974.974 0 0 0-.047.284v3.951l-6.127-9.299a.083.083 0 0 0-.014-.014l-.012-.012a.993.993 0 0 0-.234-.232c-.01-.009-.021-.017-.033-.025l-.02-.016-.015-.01-3.605-2.085-1.497-2.272-2.163-3.285a.983.983 0 0 0-1.147-.386l-3.827 1.342a.983.983 0 0 0-.491 1.468l2.705 4.107 1.492 2.27.492 4.137a.375.375 0 0 0 .01.04c.004.02.009.041.015.061a.974.974 0 0 0 .116.295c.004.005.006.011.007.017a.054.054 0 0 0 .007.016l.664 1.006v.001c2.86 4.332 13.97 21.166 14.031 21.218A4.87 4.87 0 0 0 45.255 68c.4 0 .8-.05 1.19-.145a4.886 4.886 0 0 0 3.028-2.235l13.08-21.698 2.065-1.307a8.344 8.344 0 0 0 2.66-2.721 8.259 8.259 0 0 0 1.18-4.651l-.383-8.42a.983.983 0 0 0-.467-.803Zm-7.122 17.524-1.522 2.527-5.054-3.048 1.524-2.527 5.052 3.048Zm-18.171.036v14.866l5.9-9.786v-5.08h-5.9Zm1.693-5.9h2.515l1.31 3.933h-5.136l1.31-3.934Zm.274-7.868a.983.983 0 1 0 1.966 0 .983.983 0 0 0-1.966 0Zm.983-7.211 4.75 6.331-3.39 6.78h-.377v-3.13a2.95 2.95 0 1 0-1.966 0v3.13h-.376l-3.39-6.78 4.75-6.331ZM31.241 38.009l.289-.191-2.43-1.406a.99.99 0 0 1-.328-.31l-1.081-1.642-1.642 1.082 1.081 1.642a.982.982 0 0 1 .156.424l.333 2.787 3.622-2.386Zm-5.833-7.017 1.2 1.822-1.642 1.082-1.475-2.232 1.917-.672Zm7.707 8.131-2.458 1.624-2.464 1.624 12.155 18.45V50.095l-7.233-10.972Zm14.677 25.475a2.95 2.95 0 1 1-5.07-3.019l.005-.008.013-.021 7.425-12.315h.017v-.027l2.712-4.499 2.527 1.526 2.53 1.52-10.16 16.843Zm15.779-23.65a6.304 6.304 0 0 0 2.929-5.62l-.104-2.264-2.297.57a4.032 4.032 0 0 0-2.977 3.042.984.984 0 1 1-1.919-.43 5.987 5.987 0 0 1 4.425-4.523l2.382-.59a.974.974 0 0 1 .295-.013l-.125-2.74-6.294 2.962a6.318 6.318 0 0 0-3.604 5.212l-.162 2.066 2.852 1.717 2.852 1.717 1.747-1.107Z" fill="#2BD0D0"/></svg>