<svg width="88" height="88" fill="none" xmlns="http://www.w3.org/2000/svg"><circle cx="44" cy="44" r="44" fill="#3A3054"/><path fill-rule="evenodd" clip-rule="evenodd" d="M32.376 41.764a3.503 3.503 0 0 1-2.438.986 3.52 3.52 0 0 1-3.516-3.516 3.52 3.52 0 0 1 3.515-3.515 3.52 3.52 0 0 1 3.488 3.949l3.45 1.725a3.502 3.502 0 0 1 3.952-.643l4.689-4.688a3.496 3.496 0 0 1-.344-1.515 3.52 3.52 0 0 1 3.516-3.516c.72 0 1.389.218 1.947.59l4.073-3.054A3.52 3.52 0 0 1 58.063 24a3.52 3.52 0 0 1 3.515 3.516 3.52 3.52 0 0 1-3.516 3.515c-.72 0-1.389-.217-1.947-.59l-4.073 3.055a3.52 3.52 0 0 1-3.355 4.567 3.496 3.496 0 0 1-1.514-.344l-4.689 4.688c.22.459.344.973.344 1.515a3.52 3.52 0 0 1-3.516 3.516 3.52 3.52 0 0 1-3.487-3.95l-3.45-1.724Zm26.858-14.248c0-.646-.525-1.172-1.172-1.172-.646 0-1.171.526-1.171 1.172 0 .646.525 1.172 1.172 1.172.646 0 1.171-.526 1.171-1.172Zm-10.547 5.859c.647 0 1.172.526 1.172 1.172 0 .646-.525 1.172-1.172 1.172a1.173 1.173 0 0 1-1.171-1.172c0-.646.525-1.172 1.172-1.172Zm-8.203 10.547c0-.646-.525-1.172-1.172-1.172-.646 0-1.171.526-1.171 1.172 0 .646.525 1.172 1.172 1.172.646 0 1.171-.526 1.171-1.172Zm-10.547-5.86c.647 0 1.172.526 1.172 1.172 0 .646-.525 1.172-1.172 1.172a1.173 1.173 0 0 1-1.171-1.172c0-.646.525-1.172 1.172-1.172Zm31.641 23.594h1.25a1.172 1.172 0 1 1 0 2.344H25.172a1.172 1.172 0 1 1 0-2.344h1.25V48.61c0-.647.524-1.172 1.172-1.172h4.687c.648 0 1.172.525 1.172 1.172v13.047h2.344v-8.36c0-.646.525-1.171 1.172-1.171h4.687c.648 0 1.172.525 1.172 1.172v8.36h2.344V43.921c0-.647.525-1.172 1.172-1.172h4.687c.648 0 1.172.525 1.172 1.172v17.734h2.344V36.891c0-.648.525-1.172 1.172-1.172h4.687c.648 0 1.172.524 1.172 1.172v24.765Zm-2.344 0V38.063h-2.343v23.593h2.343ZM47.516 45.094h2.343v16.562h-2.343V45.094Zm-7.032 16.562V54.47h-2.343v7.187h2.343ZM28.766 49.781h2.343v11.875h-2.343V49.781Z" fill="#2BD0D0"/></svg>